<?xml version="1.0" standalone="no"?>
<!DOCTYPE svg PUBLIC "-//W3C//DTD SVG 20010904//EN"
 "http://www.w3.org/TR/2001/REC-SVG-20010904/DTD/svg10.dtd">
<svg version="1.0" xmlns="http://www.w3.org/2000/svg"
 width="436.000000pt" height="436.000000pt" viewBox="0 0 436.000000 436.000000"
 preserveAspectRatio="xMidYMid meet">
<metadata>
Created by potrace 1.11, written by Peter Selinger 2001-2013
</metadata>
<g transform="translate(0.000000,436.000000) scale(0.100000,-0.100000)"
fill="#000000" stroke="none">
<path d="M0 2180 l0 -2180 2180 0 2180 0 0 2180 0 2180 -2180 0 -2180 0 0
-2180z m2405 1789 c106 -12 343 -76 441 -119 148 -65 275 -139 393 -228 91
-67 281 -256 318 -315 14 -23 29 -44 32 -47 13 -11 90 -129 124 -192 83 -151
163 -390 197 -593 15 -88 15 -378 0 -470 -66 -417 -271 -800 -566 -1059 -111
-97 -116 -101 -209 -162 -212 -138 -466 -236 -697 -269 -121 -17 -369 -19
-489 -5 -264 33 -597 169 -792 322 -27 21 -52 38 -56 38 -10 0 -231 218 -269
265 -41 52 -100 137 -137 200 -16 28 -35 59 -42 70 -7 11 -16 29 -21 40 -5 11
-24 49 -42 85 -58 118 -113 306 -135 461 -17 121 -19 348 -5 469 19 153 80
365 141 490 17 36 36 74 41 85 5 11 14 29 21 40 7 11 26 43 42 70 78 132 140
210 259 329 212 210 468 361 737 436 63 17 125 35 139 40 27 9 190 29 280 34
70 3 180 -2 295 -15z"/>
<path d="M1950 3470 c-265 -49 -468 -157 -656 -346 -193 -196 -291 -382 -344
-659 -48 -242 -7 -552 100 -774 93 -192 287 -409 459 -514 79 -48 223 -114
296 -135 268 -78 599 -67 830 28 248 102 409 226 556 427 159 219 239 466 239
744 0 242 -65 476 -184 662 -78 122 -207 261 -321 346 -266 199 -641 284 -975
221z m837 -681 c56 -27 79 -51 109 -114 29 -60 31 -121 7 -190 -16 -44 -60
-92 -373 -406 -208 -209 -374 -367 -400 -382 -83 -47 -186 -42 -257 12 -41 32
-351 340 -382 381 -39 50 -54 93 -53 154 1 137 120 245 257 234 86 -7 116 -26
241 -148 l81 -79 243 245 c134 135 258 256 275 270 75 57 165 65 252 23z"/>
</g>
</svg>
